<svg width="569" height="366" viewBox="0 0 569 366" fill="none" xmlns="http://www.w3.org/2000/svg">
<g clip-path="url(#clip0_1171_5133)">
<path d="M566.73 234.32L521.18 234.06C507.09 302.6 436.77 261.54 436.77 221.74L528.66 205.39C518.1 139.62 425.3 130.37 423.13 210.62L386.21 217.1L362.55 176.43L410.1 148.95L403.53 137.57L355.96 165.03L340.72 138.64C394.93 84.89 458.11 0 333.18 0C264.92 0 164.79 72.77 164.79 132.39C164.79 192.01 236.27 189.94 236.27 246.2C236.27 302.46 159.88 358.46 90.4602 358.46C77.8102 358.46 19.4902 357.69 19.4902 308.14C19.4902 225.04 131.49 218.08 131.49 218.08C206.59 218.08 160.14 314.6 96.3902 310.47C183.62 336.79 246.84 210.86 131.74 210.86C-5.66975 210.86 -60.2598 365.18 89.6802 365.18C207.36 365.18 274.2 297.05 274.2 252.92C274.2 193.82 194.01 193.57 194.01 138.92C194.01 71.37 304.27 19.5 322.46 19.5L322.59 146.24L291.75 164.01V77.82L278.59 85.42V262.71L291.75 255.08V179.22L322.59 161.42V237.31L335.75 229.7V156.3L379.43 232L423.13 224.2C423.13 310.32 584.4 335.34 566.72 234.32H566.73ZM335.76 118.96V16.48C435.76 -2.68 376.99 101.74 335.76 118.97V118.96ZM503.73 196.44C503.73 196.44 503.74 196.45 503.74 196.46L436.77 208.21C438.57 153.86 495.51 165.36 503.73 196.44Z" fill="#000"/>
</g>
<defs>
<clipPath id="clip0_1171_5133">
<rect width="568.09" height="365.16" fill="#000"/>
</clipPath>
</defs>
</svg>
